# xmcd
# 
# Track frame offsets:
#     150
#     10197
#     22895
#     38435
#     49547
#     63105
#     76850
#     87940
#     102495
#     115185
#     124290
#     136792
#     147492
#     161840
#     175937
#     185575
#     198622
#     210185
#     221212
#     232707
# 
# Disc length: 3244
# 
# Revision: 3
# Processed by: cddbd v1.5.2PL0 Copyright (c) Steve Scherf et al.
# Submitted via: fre:ac v1.0.31
# 
DISCID=080caa14
DTITLE=Various Artist - The Country Collection Disk #1
DYEAR=0
DGENRE=Country
TTITLE0=Willie Nelson - A New Way To Cry
TTITLE1=Anne Murray - I Just Fall In Love Again
TTITLE2=Grand Junction - Country Road
TTITLE3=Patsy Cline - Walking After Midnight
TTITLE4=Barbara Fairchild - Teddy Bear Song
TTITLE5=George Jones - A Good Year For Roses
TTITLE6=Roger Miller - King Of The Road
TTITLE7=Johnny Paycheck - The Green Green Grass Of Home
TTITLE8=Johnny Cash - Folsom Prison Blues
TTITLE9=Grand Junction - Grand Junction
TTITLE10=Johnny Paycheck - Take This Job And Shove It
TTITLE11=Patsy Cline - Honky Tonk Merry Go-Round
TTITLE12=Mickey Gilley - Someday I'll Make It Up To You
TTITLE13=Anne Murray - A Little Good News
TTITLE14=Willie Nelson - Lets Pretend
TTITLE15=George Jones - Things Have Gone To Pieces
TTITLE16=Kenny Rogers - Me And Bobby McGee
TTITLE17=Jimmy Dean - Little Black Book
TTITLE18=Freddy Fender - I'm Leaving It Up To You
TTITLE19=Faron Young - Riverboat
EXTD=
EXTT0=
EXTT1=
EXTT2=
EXTT3=
EXTT4=
EXTT5=
EXTT6=
EXTT7=
EXTT8=
EXTT9=
EXTT10=
EXTT11=
EXTT12=
EXTT13=
EXTT14=
EXTT15=
EXTT16=
EXTT17=
EXTT18=
EXTT19=
PLAYORDER=
